<svg width="200" height="200" xmlns="http://www.w3.org/2000/svg">
 <g id="Layer_1">
  <title>Layer 1</title>
  <g stroke="null" id="svg_12">
   <path stroke="#000" stroke-width="0" fill="#c0caf5" opacity="NaN" d="m153.65289,122.80504c0,0 7.44425,-74.45215 -20.3877,-81.23409c-27.83194,-6.78193 -25.22972,35.08577 -23.79109,34.39084c1.43863,-0.69492 8.41496,-22.0407 24.70684,-11.02007c16.29186,11.02063 12.6336,32.8523 19.47195,57.86331z" id="svg_2"/>
   <path stroke="#000" stroke-width="0" id="svg_3" d="m100.09966,159.17249c-14.03789,0 -26.69544,-41.96194 -26.69544,-65.27365c0,-23.31172 12.40018,18.49619 26.43807,18.49619c14.03789,0 26.95281,-43.9449 26.95281,-20.63318c0,23.31172 -12.65755,67.41064 -26.69544,67.41064z" opacity="undefined" fill="#c0caf5"/>
   <ellipse stroke="#000" stroke-width="0" ry="14.06232" rx="14.06232" id="svg_4" cy="91.00056" cx="100.39988" fill="#c0caf5"/>
   <path stroke="#000" id="svg_6" d="m67.69331,107.37241c-1.58808,-0.75982 -7.71791,-15.57462 -7.71791,-21.93429c0,-6.35967 13.56755,-16.57646 22.50054,-16.57646c8.933,0 -6.45796,11.26684 -9.49724,17.37324c-3.03927,6.1064 -3.69732,21.89733 -5.2854,21.13751z" opacity="undefined" stroke-width="0" fill="#c0caf5"/>
   <path stroke="#000" id="svg_7" d="m134.45261,106.7891c1.5767,-0.73781 7.66257,-15.12341 7.66257,-21.29883c0,-6.17542 -13.47027,-16.09622 -22.33921,-16.09622c-8.86896,0 6.41165,10.94043 9.42913,16.86992c3.01748,5.9295 3.67082,21.26294 5.24751,20.52514z" opacity="undefined" stroke-width="0" fill="#c0caf5"/>
   <path stroke="#000" stroke-width="0" fill="#c0caf5" opacity="NaN" d="m46.3753,120.79044c0,0 -7.67644,-71.78251 21.02358,-78.32126c28.70002,-6.53875 26.01663,33.8277 24.53315,33.15769c-1.4835,-0.67001 -8.67743,-21.25039 -25.47745,-10.62493c-16.8,10.62547 -13.02765,31.67432 -20.07928,55.7885z" id="svg_8"/>
   <ellipse stroke="#000" ry="8.09438" rx="8.09438" id="svg_9" cy="91.04967" cx="100.32153" stroke-width="0" fill="#ffffff"/>
  </g>
 </g>

</svg>